<svg id="Layer_1" data-name="Layer 1" xmlns="http://www.w3.org/2000/svg" viewBox="0 0 1428 1134"><defs><style>.cls-1{fill:#eea690;}.cls-2,.cls-5{fill:#eaf7fa;}.cls-2,.cls-3,.cls-4,.cls-5,.cls-6,.cls-7{stroke:#eaf7fa;stroke-miterlimit:10;}.cls-2,.cls-3{stroke-width:4px;}.cls-3,.cls-4,.cls-6,.cls-7{fill:none;}.cls-4,.cls-5,.cls-7{stroke-width:2px;}.cls-7{stroke-dasharray:12;}</style></defs><rect class="cls-1" x="-3" y="-1" width="1428" height="1141"/><path class="cls-2" d="M202.25,583.28l-2.59-28.45"/><path class="cls-3" d="M218,569.37a110.88,110.88,0,0,0-29.56-1"/><path class="cls-4" d="M933,1144.37c-2.57-5.61-4.46-11.56-7.68-16.82-9.16-15-29.5-21.93-45.92-15.73-6.7,2.53-13.77,7-20.44,4.41-3.39-1.33-5.87-4.31-9.07-6-5.32-2.88-11.84-2-17.69-.46a88.47,88.47,0,0,0-35,18.57c-7.54,6.55-15.61,15-25.53,13.74"/><path class="cls-5" d="M1014,709.27v30.66"/><path class="cls-5" d="M1029,726.42l-31.43-.17"/><path class="cls-6" d="M-.45,905.11c4.82-.23,8.55,4.38,10,9s1.42,9.61,3.27,14.06c3.52,8.48,12.71,13,18.61,20,5.68,6.79,8.11,16.49,5.27,24.87s-11.34,14.82-20.18,14.3c-4-.23-8.15-1.73-11.83-.18a12.79,12.79,0,0,0-5,4.36,38.6,38.6,0,0,0-7.39,17.77"/><path class="cls-6" d="M-3.34,852.63l54.53,87.63c2,3.18,4.06,6.46,7.19,8.51,2.47,1.61,5.4,2.33,8.16,3.37,20.34,7.68,28.8,36.63,15.79,54.06-5.16,6.91-12.63,11.68-18.91,17.6a67.88,67.88,0,0,0-21.05,48.85c0,4.34.44,8.71-.14,13-.73,5.38-3,10.59-2.68,16,.24,3.81,1.77,7.4,3.28,10.9l11.07,25.68"/><path class="cls-6" d="M-2.39,1037.1c6.16-.75,14.32-.27,16,5.69,1.44,5-3.19,9.55-5.35,14.33-5.7,12.55,6,27.79.84,40.58C6.56,1104.13,0,1109.1,0,1116c0,4.61,2.64,10.29-1,13.14"/><path class="cls-6" d="M-2.74,825.14c13.92,37.63,60.61,52.61,81.37,86.93,7.66,12.68,12,28.17,23.84,37,3.72,2.77,8,4.74,11.32,8,4,3.95,6,9.38,8,14.64L137.5,1014c1.89,5.08,3.8,10.27,4,15.69.57,14.3-12.89,27.55-27.18,26.75-5.45-.31-12.63-1.45-14.81,3.54-1.31,3,.31,6.56-.55,9.72-1.64,6-9.91,6.26-15.27,9.38-9.69,5.64-8.6,20.28-3.32,30.17s13.55,18.8,14.61,30"/><path class="cls-6" d="M-1.54,754c9.74.29,17.62,7.91,23.42,15.74s10.9,16.7,19.27,21.69C46.49,794.6,52.8,796,58,799.35c14.4,9.37,16.28,31,30.25,41,5,3.58,11.18,5.36,15.81,9.4,8.39,7.3,9.51,19.69,14,29.85,5.36,12,15.61,20.92,25,30.12A294.22,294.22,0,0,1,216,1026.85c1.85,5.62,3.6,11.41,7.18,16.12,4.4,5.8,11.21,9.44,15.5,15.32,8.51,11.68,5,28.89,12.92,41,1.76,2.68,4.08,5.13,4.85,8.24,1.61,6.52-4.4,12.62-10.7,14.94s-13.3,2.43-19.4,5.24-11.15,10.13-8.06,16.08"/><path class="cls-6" d="M464.33,777c.17-3.93.38-8-1.07-11.64s-5.13-6.73-9-6.14c-5.48.84-7.49,7.67-7.67,13.22-.35,11.1,4.37,45.44,18,45.82C465.75,804.84,463.74,790.68,464.33,777Z"/><path class="cls-6" d="M397,694.72c-3.76,4.91-1,12.45,3.88,16.27,10,7.89,25.7,11.85,36.69,18.55C437.37,719.66,399,692.17,397,694.72Z"/><path class="cls-6" d="M505.65,886.53c-1.22-.4-2.74-.75-3.67.14a3.53,3.53,0,0,0-.83,1.91,55.88,55.88,0,0,0-1.27,12.57,32.24,32.24,0,0,0,3.36,14.17c6.48,12.47,27.26,21.44,31.67,3.4C539.57,899.64,519.77,891.2,505.65,886.53Z"/><path class="cls-6" d="M479.33,787.79c-.71-15.31-1.48-30.92-6.93-45.25a73.06,73.06,0,0,0-26.28-33.71c-15.06-10.51-34.75-16-44.47-31.54-3.44-5.53-8.74-13.24-14.34-9.92-1.78,1.06-2.78,3-3.54,5-6,15.33-.53,34.37,12.7,44.18,5.34,4,11.65,6.45,17,10.35,14,10.16,19.87,28.15,22.85,45.22s4.15,34.93,12.2,50.28c4.58,8.72,26.37,36.66,34.31,19.79,2.45-5.21-1.47-16.66-2-22.12C479.93,809.34,479.83,798.51,479.33,787.79Z"/><path class="cls-6" d="M373,712c4.48,8.49,13.17,13.72,20.78,19.57a114.66,114.66,0,0,1,43.82,79.85c1.1,12.51.49,26.29,8.33,36.1,3.65,4.57,8.75,7.7,13.75,10.74l36.62,22.27c3-16-4.57-31.86-6.33-48-1.62-14.84,1.68-29.75,1.83-44.67.29-30-12.31-59-29.88-83.36-4.78-6.64-10.1-13.13-17.09-17.39-4.65-2.82-9.88-4.56-14.57-7.31-14.14-8.28-34.57-43.43-52.92-32.15C361.94,657.15,364.43,699.11,373,712Z"/><path class="cls-6" d="M618.75,1012.45c-11.74-11.15-21.25-25.56-22.92-41.67-.28-2.72-.36-5.56-1.58-8s-4-4.39-6.65-3.57c-3,.95-4,4.71-4.42,7.87-1.44,10.17-2.75,21.16,2.14,30.21,3,5.62,8.13,9.79,13.1,13.81l24.42,19.74c5.78,4.68,11.71,9.53,15.3,16,5.61,10.17,4.89,27.5,16.62,33.54,9.9,5.09,18.36-1.35,20.11-11.62C679.12,1043.72,633.67,1026.64,618.75,1012.45Z"/><path class="cls-6" d="M571.52,963.71a297.11,297.11,0,0,0,4.39,33.23c1.07,5.64,2.52,11.64,6.79,15.48,2.41,2.17,5.55,3.45,7.79,5.8,2.63,2.74,3.71,6.59,5.71,9.81,6.34,10.23,20.65,12.72,28.09,22.18,9.49,12.08,5.05,31.77,16,42.5,6.29,6.14,16.44,7.32,24.61,4s14.37-10.39,18-18.41c4.3-9.58,5.07-21.14.19-30.44-7.48-14.28-25.14-21.14-37-31.21-13-11.05-22.79-22.77-27.25-39.3-3.42-12.7-5.3-23.32-17.91-30.54C585.44,938,570.11,944.87,571.52,963.71Z"/><path class="cls-6" d="M659,842.15a68.87,68.87,0,0,1-27-14.76,12.39,12.39,0,0,0,3.92,15.67c2.64,1.74,5.89,2.39,8.48,4.21,4.31,3,6.46,9.06,11.54,10.49,3.07.87,6.35-.3,9.16-1.83a8.51,8.51,0,0,0,3.94-3.57c1.45-3.12-.94-6.94-4.11-8.28s-6.77-.91-10.18-.45"/><path class="cls-6" d="M620.71,714.23c-3.44,3-8.3,5.63-12.42,3.64-3.78-1.82-5-6.63-5-10.82s.8-8.57-.71-12.48c-1.31-3.39-4.14-5.91-6.6-8.59a49.49,49.49,0,0,1-12.86-34c.06-3.26.57-6.79,2.9-9.07a9.88,9.88,0,0,1,7.73-2.37c7.52.59,13.63,6.83,16.37,13.86,4.26,10.94-.74,24.27,4.1,34.53C618.8,698.64,633.77,702.73,620.71,714.23Z"/><path class="cls-6" d="M633.55,708.07c1.38-1.85,2.76-3.85,3-6.15.45-4.09-2.68-7.55-5-11-6.3-9.38-7-21.28-9.18-32.36s-7.45-23.05-18.09-26.85c-7.11-2.53-15-.78-22.48-1.56-18.09-1.87-31.09-17.6-46.67-27-3.22-1.94-6.9-3.68-10.62-3.07s-7,4.59-5.61,8.07a58.47,58.47,0,0,1,36.94,23.58c5.54,7.87,9,17,12.68,25.86a534.91,534.91,0,0,0,30.16,61.65c4.52,7.92,8.18,20.28,16.46,15.92C620.28,732.52,629.52,713.48,633.55,708.07Z"/><path class="cls-6" d="M626.68,736.29c3.81-7,11.36-10.87,17.69-15.69s12.14-12.44,10-20.09c-2.08-7.35-10.37-10.91-14.8-17.14C628.59,668,643.36,641.18,628.2,630c-7.73-5.73-18.44-3.09-28-2.45A61.43,61.43,0,0,1,557,613.34c-10.85-9.13-20.21-22.86-34.38-23.3-10.09-.31-18.84,6.51-26.6,13,22.56,5.71,39.38,24.81,50.52,45.24s18,43,29.45,63.24c6.75,12,15.29,23.31,20.07,36.31,3.18,8.66.64,23.93,9.4,28.62C629.32,789.24,622.48,744,626.68,736.29Z"/><path class="cls-6" d="M712.56,856.43a7.45,7.45,0,0,0-2.6-2.17c-2.48-1.24-5.35-1.36-8.08-1.83-14.42-2.49-24.93-14.85-38.22-21-5-2.29-10.33-3.69-15.3-6-5.92-2.75-18.12-15.74-25.58-12.12-8.24,4-3.33,20.64,1.43,25.79,2.4,2.61,5.58,4.33,8.5,6.32a51.43,51.43,0,0,1,13.41,13.35c2.83,4.11,6.81,9.35,11.51,7.67a12.53,12.53,0,0,0,4-3,28.68,28.68,0,0,1,25.14-6.82c8.11,1.78,27.71,12.68,23.6-3.94-2.71-11-26.88-19.69-36-24-11.14-5.18-23-9.61-32.07-17.85-3.87-3.5-7.2-7.65-11.48-10.64s-10-4.69-14.77-2.59c-7.27,3.21-8.59,12.83-8.48,20.77q.12,8.1.77,16.17c.35,4.37.9,9,3.49,12.52,5.58,7.64,17.57,6.93,24.75,13.09,3.35,2.86,5.34,7,7.94,10.51s6.41,6.82,10.81,6.64c7.33-.3,10.9-9.26,17.36-12.71,5.23-2.8,11.68-1.62,17.24.45s10.92,5,16.82,5.55,12.72-2.14,14.43-7.81c1.51-5-1.57-10.45-5.89-13.36s-9.63-3.85-14.77-4.72"/><path class="cls-6" d="M700,877.53c3.23,1.41,6.11,3.63,9.52,4.57,10.92,3,20.81-8.75,22.34-20a15.1,15.1,0,0,0-.56-7.76c-2.1-5.18-8.1-7.34-13.35-9.26-13.12-4.82-25.37-11.67-37.57-18.49-14.59-8.17-29.79-16.91-38.65-31.09-11.73-18.77-8.89-45.4,6.54-61.28,7-7.23,16.53-12.75,20.17-22.15,4.1-10.57-1.9-23.93-12.53-27.89-2.25-.84-4.74-1.35-6.49-3-2.76-2.62-2.63-7-2.35-10.77,1.41-18.89.55-40.38-13.47-53.12-19.38-17.63-51.8-8.15-74.52-21.21-4.64-2.66-9-6.31-14.27-7.06-4.36-.62-9.28.72-12.88-1.81-1.61-1.12-2.7-2.89-4.38-3.91-3-1.8-6.75-.78-10,.29l-33.28,10.78c-3,1-6.74,3-6.16,6.15.3,1.63,1.72,2.78,3.05,3.77,21,15.8,41.06,33.33,56.15,54.84,14,19.94,23.27,42.7,32.46,65.26l21.74,53.41c3.28,8.06,6.59,16.22,7.78,24.83,2.51,18.19-3.37,40.32,10.41,52.45,7.36,6.46,17,8.34,23.81,15.71,5.67,6.13,8.17,17.87,17.53,19.73C668.51,894,680.06,868.83,700,877.53Z"/><path class="cls-6" d="M728,1137.66c-4.69-10.77,4.14-22.1,10.24-32.14,21.44-35.31,6.83-87.42-29.86-106.43-15.54-8.06-34.63-11.3-45.55-25-17.53-22-4.81-59.59-25.51-78.61-10.54-9.68-26.31-10.8-38.8-17.8-14.89-8.35-23.92-24.48-28.61-40.9s-5.78-33.63-9.06-50.39c-5.21-26.62-15.89-51.82-26.51-76.79-5.63-13.24-11.28-26.53-18.63-38.89a162.06,162.06,0,0,0-66.8-62c-6.9-3.42-15-7.51-16.21-15.11-1-6,3.11-11.89,8.29-15.1s11.31-4.38,17.21-5.89a128.45,128.45,0,0,0,41.11-18.6c13.08-9,26.91-21.37,42.5-18.25,16.46,3.3,24.28,21.64,35.73,33.93,17.21,18.47,43.87,23.66,67.06,33.64,8.24,3.55,16.49,8.06,21.65,15.4,3.49,5,5.32,10.9,7.09,16.71l19.35,63.58c3.58,11.77,7.13,24.71,2.35,36-5.67,13.48-22.42,23.32-20,37.74,1.15,6.77,6.45,12,11.47,16.64l75.69,70.63c4.7,4.38,9.82,10.51,7.39,16.45-13-6.22-25.83,7.51-38,15.15-12.69,8-28.27,9.59-42.25,15s-27.8,17.46-26.52,32.39c.71,8.38,6,15.56,11.38,22.06,3.84,4.67,7.88,9.32,13,12.49,17.88,11,41.41.62,61.87,5.28,21.54,4.89,36.78,28.77,32.17,50.37-1.83,8.53-6.21,16.26-9.85,24.19a149.76,149.76,0,0,0-12,83.36"/><path class="cls-6" d="M659.13,787c-6-9.44-10.39-21.14-6.71-31.69,5.46-15.64,26.33-22.71,29.66-38.93,3-14.81-10-27.34-17.35-40.57-12.18-22-10.29-52.38-29.92-68.11-17.6-14.1-44.43-9.26-63.62-21.12-13-8-22.43-23.48-37.62-24.57-13.25-.94-24,9.65-35.13,17A80.06,80.06,0,0,1,457.65,592c-2.1.08-4.41.16-5.92,1.61-4.07,3.9,2.39,9.73,7.6,11.85,38.62,15.65,67.07,50.18,84.58,88s25.47,79.19,34,120c3.72,17.82,8.36,37,22.3,48.68,12.59,10.56,31.27,13.58,40.72,27,4,5.7,6.85,13.55,13.66,15,2.89.63,5.89-.12,8.76-.87,15.27-4,100.29-19.81,77.86-48.06C730.94,842.35,709,833.7,695.7,823.83,681.73,813.45,668.54,801.76,659.13,787Z"/><path class="cls-6" d="M1,158.37c2,12.18,19,10,27.62,11.77,11.45,2.4,15.17,12.86,17.91,23,2.57,9.41,6.56,22,17.55,24.48,12.28,2.78,14.64-12,18.07-20s12.94-15.08,19.46-5.85c4.29,6.08,5,15.37,11.67,19.6,5.46,3.44,12,.72,17.74-.28a27.43,27.43,0,0,1,16.33,2.19c11,5.07,17.53,16,19.12,27.7,1.67,12.29-3.43,23.58-3.64,35.71-.18,10.89,7,20.71,18.69,19.77a15.92,15.92,0,0,0,7.09-2.27q1.11,9.11,2.23,18.22c2-4.72,7.65-6.75,12.46-5.94,6.27,1.06,8.32,6.17,9.42,11.81,1.21,6.24,2.91,12.65,10.54,12.8s13.37-5.73,20.64-6.82c3.6-.54,7,.38,9.31,3.31,1.79,2.26,2.67,5.66.44,8,18.88,4.28,33.87,17.61,47.12,31C316,385,336,398,349,419c5,7,3,15,4,22,1,8,6,15,13,21,4,4,7,11,3,16-4,3-9,1-13-1-16-10-32-16-48-26a77.41,77.41,0,0,0-16-7c-6-1-11-2-16,1-5,4-7,10-8,16-2,30-3,60,6,89,8,23,23,40,38,60,9,12,14,26,13,41-2,19-16,31-27,46-5,8-7,18-2,27,5,10,14,16,23,21,8,4,16,8,24,14,1,1,1,2,2,3,5,4,12,4,17,8,2,2,4,4,7,5,2,1,4,4,5,7l3,3a49.58,49.58,0,0,1,8,20c2,16-3,34,7,48,6,7,12,13,20,18,10,8,18,18,27,28a30.39,30.39,0,0,0,5,7c12,20,18,43,39,53,17,7,34,12,47,25,3,3,5,7,7,11,3,9-1,19,0,28,1,6,6,11,12,14,6,4,8,12,12,18,4,5,7,10,13,13,4,1,7,3,11,5,1,1,3,1,4,1,12,5,17,16,25,26,6,7,13,14,22,18,2,1,5,2,7,3,10,2,18,5,27,9,15,7,31-4,35-20a23.61,23.61,0,0,1,6-9c12-9,14-25,8-38-9-17-23-29-35-44-7-10-12-20-18-31-6-10-12-20-19-30-8-13-10-26-16-39-4-8-10-13-17-17-10-5-21-7-31-14-20-15-29-37-36-59-13-39-20-79-37-117-1-2,0-3-1-5-9-19-20-37-38-51-23-18-53-30-58-61-1-9,3-17,11-22,34-19,71-28,97-59,3-2,5-5,10-4,14,3,22,14,31,24,13,15,24,28,40,40,18,13,38,16,57,23,8,4,15,8,21,15,10,13,14,27,19,42,9,21,19,42,16,65-3,16-9,31-21.23,41.58"/><path class="cls-6" d="M299.13,1134.56c-2.73-.56,1.91,3.43,2.66.75s-1.11-6.17.95-8c9.91-9,19.31-19.19,23.57-31.85s2.2-28.24-8-36.88a283,283,0,0,1-78.7-108.4c-3.26-8-6.75-16.81-14.38-20.83S212.62,917.45,208.09,910l-35.16-57.84c-7.65-12.59-16.56-26.18-30.7-30.3-24.91-7.26-29.89-43.41-53.28-54.65-36.07-17.33-42.71-70.47-78.42-88.54-7.21-3.65-7.19-14.82-1.95-21s13.54-8.57,21.35-10.64c20.14-5.35,41-10.83,57.19-23.93s26.37-36.17,18.07-55.27c-5.61-12.9,12.74-27.67,6.39-40.21-4.74-9.34-21.13-11.74-20.41-22.18.44-6.4,7.45-9.82,13-13,23-13.15,33.67-44.38,23.52-68.86-8.55-20.58-28.45-33.93-41.54-52S70,323.17,89.88,313.05a344.11,344.11,0,0,1,44.34,28.22c21.28,16,50.35,14.43,76.38,19.82A139,139,0,0,1,273.08,392c-.75,5.78-8.19,8-13.95,7s-11.46-3.64-17.16-2.41c-12.72,2.75-13.63,20.53-10.69,33.21,7.25,31.31,19.5,63.94,9.77,94.57-5.63,17.76,2.69,37,13.46,52.17s24.3,28.84,31.2,46.14,4.67,40.39-11.19,50.17c-21.07,13-19.43,45.9-4.85,65.91s37.59,31.78,56.92,47.26,36.38,39.07,31,63.24C352.67,871.12,380,884.45,394,901.94c15.68,19.65,15.54,49.59,34.12,66.54,16.64,15.19,46.32,18.16,52.43,39.86a171,171,0,0,0,69.34,95.18c16.79,11.14,38,23.07,38.51,43.22"/><path class="cls-6" d="M336.51,1140.54a17.71,17.71,0,0,1,10-17.58c14.48-6.59,17.66-3,13.94-20.68-1.29-6.11-6.45-10.63-7.49-16-1.36-7.07,2.94-15.43,1.87-23-2.64-18.71-21.32-30-34.39-43.6-18.1-18.88-26.51-44.69-37.3-68.5-7.61-16.8-17.32-33.82-31.85-45.6-6.73-5.46-20.23-7.21-24.78-14.88-3.46-5.85,1.79-8.66.73-13.36-1.56-6.89-12.46-9.06-17.89-14.23-8.77-8.35-7.78-19.69-12.4-29.85-3.95-8.7-11.58-15.52-18.79-22-1.36-1.23-3.64-2.4-4.8-1-.61.75-.5,1.82-.68,2.76a4.46,4.46,0,0,1-4.48,3.51c-11.6-.62-20.89-54.73-27.58-64.33-7.32-10.49-18.35-17.73-27.19-27s-15.72-22.45-11.65-34.59c5.23-15.57,24.62-20.6,36-32.45,23-23.94,6.4-64,14.82-96.1,2.89-11,8.9-22,6.39-33.12-1.27-5.59-4.6-10.46-7.14-15.6-17-34.38,1.21-79.28-18.33-112.29-3.58-6.05-8.39-11.6-10-18.44s1.79-15.63,8.76-16.5c9.25-1.16,13.38,9.76,21.39,11.63,10.07,2.35,16.41-7.1,27.92-3.95,4.95,1.36,9.46,4,14.34,5.59,8.73,2.87,18.39,2.34,26.87,5.88,7.1,3-7.64,26.82-8.87,31.86a57.91,57.91,0,0,0,2.78,36.61c2.48,5.69,5.86,10.95,8.19,16.7,5.45,13.47,4.75,28.5,5.26,43A246.64,246.64,0,0,0,264.8,630.78c2.4,4,5,8.09,5.87,12.68,4.05,20.78-25.45,32.78-30.69,53.28-3.42,13.35,4.37,27,13.32,37.43s19.71,20.16,24.08,33.24c3.41,10.22,2.66,21.94,8.5,31,7.48,11.6,22.69,14.64,35.18,20.5s24.19,20.9,16.54,32.39c-1.22,1.84-2.86,3.39-4,5.28-4.54,7.47.13,17.48,7,22.9s15.49,8.07,22.72,13C380.84,904.33,387,926.79,393.39,947s16.56,42.36,36.75,48.87c13.17,4.24,31.75,3.39,35.76,16.63,4.47,14.76-16.74,27-14.95,42.31,1.15,10,11.51,16,21.1,19s20.29,4.8,27,12.22c2.72,3,4.55,6.67,6.89,10,14.43,20.36,47,25.33,54.82,49"/><path class="cls-6" d="M464.72,1140.31c2-9.91-10.44-19.33-19.4-14.65-2.77,1.45-5.17,3.9-8.27,4.2-8.05.77-10.71-12.25-18.57-14.15-5.55-1.35-10.63,3.57-13.48,8.53s-5.15,10.78-10.21,13.43-13.29-1.66-11.24-7c.67-1.73,2.19-3,3.4-4.36a13.64,13.64,0,0,0-16.22-21.17c8.17-13.79,16.64-28.79,15.2-44.76-2.07-23.14-23.37-38.8-40.18-54.84A189.07,189.07,0,0,1,298,931.43c-4.3-12.33-7.95-26-18.44-33.83-8.23-6.1-20.94-9.31-22.35-19.46-.72-5.18,2.13-10.17,2.57-15.38.89-10.44-7.78-19.15-16.58-24.84s-18.91-10.52-24.09-19.62c-5.76-10.1-3.85-22.67-6.16-34.06s-13.68-23.27-24.07-18a13.89,13.89,0,0,1-3.58,1.62c-4.09.74-6.76-4.08-8.07-8l-16-48.27c-1.24-3.72-2.47-7.81-1.08-11.47,1.6-4.21,6.06-6.42,9.71-9,11-7.85,16.35-21.69,17.31-35.15s-1.88-26.86-4.3-40.13a661.87,661.87,0,0,1-10-151.16c.35-7.18,6.5-17.07,11.88-12.3,2.77,2.46,2,7.18,4.25,10.12,3.06,4,9.72,2.63,13.56,5.86,2.21,1.85,3,4.84,3.74,7.63l25.05,99.31c4.24,16.82,8.19,35.8-.9,50.58,14.69,1.35,20.95,21.34,14.86,34.78S225.88,682.34,213.93,691c-2.51,1.83-5.21,4.09-5.43,7.19-.38,5.57,6.77,7.93,10.85,11.73,11.55,10.74-2.85,32,5.5,45.35,2.43,3.89,6.45,6.44,10.12,9.2a78.14,78.14,0,0,1,30,50.59c.49,3.39.79,6.92,2.49,9.89,7.63,13.27,34.93,5,38.76,19.83,2.09,8.09-5.88,15.43-6.53,23.76-.89,11.33,11,18.67,19.47,26.3,25.33,22.94,24.44,63.32,43.34,91.79,11.13,16.77,28.49,28.37,46.32,37.7,3.65,1.91,7.51,3.89,9.77,7.33,2.53,3.82,2.59,8.75,2,13.3-1.33,10.8-5.7,21.12-6.24,32s4.4,23.35,14.88,26.25c8.56,2.36,17.45-2.41,26.33-2.26,26.93.47,36.86,42.1,63.52,45.89"/><path class="cls-6" d="M1436.07,819.35c-30.5-14.7-58.7-35.71-91.91-42.29-10.79-2.14-22.49-2.56-32.25,2.51-3.29,1.7-6.33,4-9.9,5-4.41,1.22-9.35.33-13.44,2.38-5.9,2.95-7.51,10.6-7.49,17.19s.88,13.69-2.51,19.35-10.26,8.35-16,11.81c-11.94,7.18-20.18,19.05-28,30.56-17.77,26-36.4,56.28-29,86.91,3.56,14.74,13,28.17,13,43.33,0,5-1.08,10-1,15,.14,12.93,7.64,24.55,15.58,34.75a273,273,0,0,0,46.4,46.69c5.32,4.19,11.46,10.38,8.83,16.62-1.27,3-4.35,5-5.85,7.87-2.55,5,.43,11.31,5.07,14.4s10.43,3.73,16,4.3"/><path class="cls-6" d="M1443.5,879.06c3-7.73-3.35-15.68-9.19-21.56L1412,835c-5.18-5.22-10.83-10.69-18-12-5.5-1-11.3.54-16.7-.88-11.39-3-17.93-18.16-29.69-17.66-5,.21-9.32,3.37-13.3,6.41l-21.38,16.3c-2.33,1.78-4.76,3.68-5.89,6.38s-.77,6-1.52,8.89c-3.07,11.85-21.14,12-28,22.13-4.84,7.13-3.35,18.2-10.38,23.16-7.63,5.38-21.73.65-25.12,9.34-1,2.68-.42,5.7-1,8.52-.81,4.32-4.19,7.68-6,11.72-4,9.1.78,19.5.75,29.43,0,7.8-3,15.27-4,23-1.53,12,1.86,24.09,6.24,35.37,22,56.58,68.4,100,117.25,136"/><path class="cls-6" d="M1432.3,759.09c.17,1,2,.62,2.15-.41s-.67-1.93-1.44-2.65a99.39,99.39,0,0,0-50-24.89c-8.7-1.54-19.8-3.82-21.34-12.53-.46-2.64.16-5.48-.81-8-2-5.08-9.32-5.71-14.09-3.08s-8,7.33-12.21,10.81c-13.56,11.23-33.75,7.76-50.42,2.07-7-2.38-14.35-5.08-21.52-3.37-5.05,1.2-9.35,4.48-13.14,8-34.25,32.08-35.49,86.06-60.33,125.88-8.26,13.26-19.11,24.85-26.54,38.59-11.7,21.67-14.5,47.93-29.55,67.42-7.58,9.81-18.67,19.37-17.3,31.68,1.56,14,18.08,20.89,24.86,33.23,7.44,13.56,3.22,33.71,16,42.43,4.56,3.12,10.62,4,14.34,8.11,7.25,8,1.54,23.08,9.86,29.91,4.06,3.34,10.53,3.57,13.36,8,3.16,5-.18,12.43,3.55,17,2.58,3.14,7.21,3.28,11.2,4.08s8.52,3.81,7.66,7.79"/><path class="cls-6" d="M1105.84,1142.6c-.95-41.27-61.54-57.94-69.66-98.41-2.33-11.61,0-24.17-4.65-35-6.77-15.64-26.47-23.58-30.84-40.06-4.41-16.65,9.11-33.59,6.67-50.64-2.27-15.9-17.68-27.19-21.19-42.88-4.31-19.3,15.06-39.8,34.57-36.57,7.34,1.21,14,5,21,7.33,23.52,7.61,49.86-3,67.54-20.29s28.47-40.22,38.88-62.63c7.68-16.52,15.45-33.4,17.48-51.5S1163,674,1149.17,662.08c-12.41-10.68-29.66-13.22-45.89-15.32-32.89-4.26-66.62-8.49-98.94-1-26.9,6.22-52.65,20.47-80.22,18.76C903.44,663.21,884.54,653,865,646.12s-42.6-10.23-59.91,1.15c-4.26,2.8-8.26,6.51-13.3,7.25s-11.12-3.7-9.45-8.52c17.06.91,24.13-21.89,22.6-38.91s-4.48-37.81,9.33-47.88c5.41-3.94,12.9-5.59,16.19-11.41,5.7-10.06-5.66-20.87-15.08-27.57a217.68,217.68,0,0,1-75.5-96c-6.53-16.32-11.7-34.38-25.25-45.58-7.94-6.56-17.91-10-27.39-14-23.76-10.09-46-25.07-61.3-45.83s-23.29-47.71-18.06-73"/><path class="cls-6" d="M692.12,757.29c-6.65,6.85-3,18.8,3.86,25.43s16.11,10.32,23.13,16.79c8.71,8,13.19,19.57,20.41,29,8.51,11.06,20.51,18.76,31.72,27.06,33.39,24.73,62.16,57.76,74.1,97.55,1.87,6.22.84,15.86-5.64,15.52-3.15-.16-5.43-3-7.18-5.6-9.89-14.8-16.92-31.39-27.24-45.9S780.17,889.83,762.46,888a15.28,15.28,0,0,0-7.15.59c-10,3.88-8,21.37-17.94,25.52-2.71,1.14-5.76,1-8.68.71-10.15-.86-20.55-2.25-30.39.4S679.2,925.81,678.73,936a23.06,23.06,0,0,0,3.36,12.38,33,33,0,0,0,29.84,16.14c10.89-.64,20.6-6.66,30.59-11s22.12-7,31.39-1.28c13.22,8.19,13.45,28.62,25.79,38.08,6.66,5.11,16.42,6.65,20.53,14,4.88,8.68-1.37,19.13-6.82,27.47A212.71,212.71,0,0,0,791,1076.83c-.85,2.4-1.67,5-.95,7.46s3.67,4.37,5.88,3.09a41.64,41.64,0,0,1,.36,17.29c11.6,1.86,20.43-9.88,31.19-14.59,14.35-6.29,31.21.47,46.54-2.77,7.61-1.61,14.7-5.66,22.47-6.06,15.32-.77,27.41,12.45,36.05,25.12s17.74,27.08,32.58,30.94a62.62,62.62,0,0,1,23.18-49.87,8.39,8.39,0,0,1,4.42-2.19c2.6-.18,4.75,1.85,6.64,3.65a83.33,83.33,0,0,0,26,16.86c3.11,1.27,6.49,2.37,9.76,1.63s6.19-4,5.4-7.24c-.7-2.85-3.68-4.41-6.25-5.84-27.34-15.19-35-50-50.74-77.11a128.52,128.52,0,0,0-30-35.15c-7.66-6.24-17.11-14.78-13.56-24,.82-2.15,2.33-4,2.87-6.26s-.48-5.15-2.76-5.45C937,951,929.74,951.22,925,948.23s-7.66-8.17-10.25-13.18q-10.17-19.63-18.6-40.11c-2.54-6.16-11.75-18.46-13.17-25l7.27-.38c3.21-6.49-1-13.94-3.27-20.8-4.78-14.3-.95-30.36,6.73-43.33s18.87-23.44,29.9-33.72c2.63-2.46,5.63-5.07,9.23-5.08,9.88,0,10.26,16.74,19.28,20.76,2.6,1.16,5.55,1.05,8.39.92l22.57-1a29.05,29.05,0,0,1,8.74.49c3.32.89,6.19,2.93,9.07,4.81a119.89,119.89,0,0,0,36,15.82c12.19,3.09,26.7,3.65,35.69-5.14,11.66-11.41,7.54-31.57,15.9-45.58,4.56-7.63,13-14,12.72-22.85-.09-3.09-1.29-6.13-1-9.21.64-5.91,6.62-10,7.74-15.87,1.34-6.95-4.52-14.54-1.21-20.79,2.38-4.47,9-7.06,8.35-12.08-.31-2.4-2.33-4.19-4.32-5.55-14.08-9.63-32.47-9.54-49.46-8.14q-22.46,1.86-44.65,5.94c-8.4,1.54-16.93,3.39-24.27,7.74-5.64,3.34-10.38,8-16,11.36-10.52,6.17-23.32,7.07-35.49,6.21-30.71-2.19-59.65-14.44-89.25-22.94s-62.36-13.07-90.41-.37c-2.59-5.59-.5-12.37,3.24-17.26s8.89-8.44,13.47-12.55c13.53-12.13,22.16-32,15.11-48.78-1.74-4.14-4.38-8-5-12.44-1.75-11.62,10.28-21.28,10.69-33,.33-9.52-7.1-17.58-15.11-22.74s-17.19-8.72-24-15.38"/><path class="cls-6" d="M1,117.66a58.26,58.26,0,0,0,40.7,25.77c5.69.75,11.73.71,16.74,3.53,4.81,2.7,7.9,7.6,12,11.32,10.78,9.86,27,10.44,40.18,16.71,20.79,9.88,33.76,33.67,56.1,39.18,3.64.9,7.48,1.29,10.72,3.17,6.5,3.77,8.53,12.14,13.49,17.79,6.72,7.66,17.79,9.38,26.8,14.15S234,266.47,227.06,274l-10.66,1.19c1.25,13.68,10.76,25.88,23,32s26.91,6.65,40.19,3.12c6.92-1.84,14-4.75,21-3.39,9.93,1.93,16.19,11.52,21.29,20.25l41.78,71.5c6.08,10.42,12.35,21.44,12.53,33.51.07,4.32-.65,8.75.53,12.91,2.19,7.71,10.08,12.17,14.84,18.61,8.17,11.05,6.3,26.29,4.06,39.84-1.25,7.54-3.13,16.05-9.74,19.88-8.41,4.87-19.33-1.08-24.93-9s-8.23-17.72-14.12-25.44c-15.08-19.78-51.2-16.12-62,6.28-5.91,12.24-4.54,26.86-.34,39.79,7,21.47,21,39.79,32.76,59.06s21.7,41.26,19,63.67c-1.82,15.13-9.28,29.15-11,44.29a60.8,60.8,0,0,0,25,55.47c14.64,10.26,35.27,15.52,41.29,32.36,2.88,8,8.67,14.51,8.47,23s-1.7,17.17,0,25.53c3,14.4,14.83,25.17,26.83,33.65s25.21,16.16,33.43,28.35c7.72,11.44,10.22,25.73,17.68,37.34a51.35,51.35,0,0,0,32.55,22.3c14.54,3,32.65.79,41.14,13,6.34,9.07,3.58,21.85,8.33,31.85,4.35,9.16,14.44,14.78,18.06,24.25,1.32,3.46,1.68,7.25,3.14,10.66,6.21,14.54,28.67,16.25,34.86,30.8s12.78,30.88,26.23,39.05,31.9,9.09,44.43-.43c19.9-15.13,16-47,2.45-68.06s-34.2-37.11-45.47-59.43c-7.63-15.11-10.61-32.47-19.93-46.61-14.95-22.7-43-32.69-62.7-51.43C505.71,831,531.3,728.84,477.76,674.31c-13.54-13.79-30.93-23-46.65-34.24s-30.59-25.78-35-44.58,5.65-41.94,24.61-45.68c6.18-1.22,12.56-.34,18.86-.64,19-.89,35.68-12.24,51.24-23.17,3.56-2.5,7.3-5.24,8.87-9.29,4.2-10.81-9.29-23.32-3.79-33.53,4.57-8.51,18-6.27,25,.49s10.66,16.37,18.12,22.52c13.39,11.07,36.73,9.55,44.3,25.19,3.24,6.7,2.67,15.43,8.11,20.51,4.5,4.2,11.33,4.2,17.25,5.89,13.22,3.78,21.87,16.11,33.09,24.05,9.36,6.62,20.52,10.16,30.47,15.83,37.06,21.12,51.43,68.47,49.18,111.06-.48,9-1.51,18.37,1.57,26.87,1.56,4.32,4.18,8.93,2.49,13.2-3.76,9.55-24.49,7.49-22.38,17.54.4,1.92,1.76,3.48,3.06,4.95,16.53,18.56,33.08,37.15,51.11,54.26,26.11,24.78,55.63,46.84,75.26,77,17.24,26.5,26.46,58.72,49.34,80.56,5.27,5,11.33,9.6,14.58,16.12s2.44,15.89-4,19.35c-5.76,3.1-13.13,0-17.53-4.84s-6.89-11.07-10.55-16.49c-5-7.43-12.18-13.14-19.21-18.72l-22.38-17.77-44.89-35.63c-4.69-3.72-9.71-7.58-15.66-8.27-14.85-1.71-25.52,16.58-40.45,17.18-12.28.49-28.06-9.87-34.58.56-3.93,6.29,1.37,15.06,8.39,17.45s14.71.39,21.86-1.61c12.06-3.37,24.38-6.86,34.6-14.09,2.87-2,5.69-4.39,9.12-5.09,5.89-1.21,11.49,2.73,16.11,6.57a366.48,366.48,0,0,1,49.33,49.53c3.77,4.59,7.54,9.49,8.81,15.29,4.72,21.43-25.38,44-12.37,61.65,20.88,14,47.1-18.16,71.55-12.22,12,2.92,19.71,14.18,28.45,22.94s23.06,15.56,32.94,8.11c5-3.76,8.55-10.89,14.79-10.54,4.53.26,7.87,4.65,12.34,5.43,8,1.38,13-9.67,10.34-17.36s-9.31-13.23-13.35-20.28-7.08-16.59-15-17.1c-6.69-.43-14.28,6.32-19.15,1.72-2.77-2.61-2.13-7-2.64-10.82-.72-5.36-4.06-9.94-7.3-14.27L848.55,883.07c-14.79-19.78-29.94-39.91-50.25-54-9.78-6.78-20.82-12.2-28.48-21.31s-10.75-23.69-2.88-32.62c7.14-1.14,5.75-11.9,9.06-18.33,6.07-11.77,26.54-6,34.83-16.29,3.47-4.32,4-10.66,8-14.4,3.73-3.42,9.3-3.63,14.35-3.66,42.21-.19,85.49-.21,125.07,14.46,12.54,4.64,24.64,10.75,37.72,13.5s27.85,1.64,38.16-6.88c9.55-7.9.55-28.31,10.18-36.12,2-1.6,4.46-2.48,6.29-4.22,4.27-4.07,2.69-12.42-2.78-14.64-6.21-2.51-12.7,2.37-17.95,6.54-16.59,13.19-37.12,22.31-58.31,22-15-.18-29.45-4.93-43.66-9.64l-55.59-18.42c-9-3-18.17-6-27.66-6.21-20.92-.45-39.36,12.5-58.09,21.84a180.74,180.74,0,0,1-41.31,14.63c-2.67.59-5.64,1.08-8-.31-5.89-3.48-1.48-12.28,2.06-18.12a43.22,43.22,0,0,0,4.24-34.85c-4.21-13.42-15.12-25.63-12.91-39.52,2.26-14.23,16.92-22.35,26.49-33.12a53.15,53.15,0,0,0,13.14-31,8.68,8.68,0,0,0-.45-4.27c-.71-1.57-2.22-2.6-3.61-3.62a61,61,0,0,1-18.68-22.26"/><path class="cls-6" d="M455,1a3.16,3.16,0,0,1,3-4.1c5.25,6.43,5.36,16,1.79,23.53s-10.27,13.1-17.5,17.18c-3.91,2.2-8.45,4.51-9.63,8.83-1.68,6.17,4.39,11.38,7.6,16.91,8.79,15.19-4.11,36.42,5,51.42,4,6.59,11.72,10.7,14.35,18,1.88,5.18.76,11,1.86,16.37.76,3.77,2.59,7.26,3.21,11.06s-.41,8.31-3.83,10.06c3.26,5,11.25.46,16.93,2.27a10.93,10.93,0,0,1,5.13,4c14.55,19-12.19,50,2.22,69.17,4.79,6.35,14,11.44,12.39,19.24-.53,2.64-2.3,4.84-3.51,7.25-4.34,8.67-1,19,1.89,28.26A292.21,292.21,0,0,1,508.19,362c4.88-4.17,11.86,1.61,15.57,6.86l20,28.23c4.65,6.58,9.85,13.56,17.53,16,4.1,1.31,8.61,1.18,12.54,2.95,7.72,3.46,10.59,12.65,13.9,20.44,3.18,7.5,7.76,14.77,14.73,19s16.71,4.6,22.8-.81c7.07-6.27,6.78-17.88,2.16-26.13s-12.47-14.07-19.73-20.12-14.46-13.08-16.83-22.23c-.78-3-1-6.19-2-9.15-2.84-8.37-11.11-13.38-18.15-18.72-27.86-21.1-42.87-58-37.67-92.52a8.75,8.75,0,0,1,10.08,6.91c5.9-1.12,7.7-9.24,5.33-14.77s-7.26-9.53-10.55-14.56c-11.06-16.92-2.64-42.36-16-57.53-6-6.8-16.12-11.28-17.15-20.29-1.06-9.26,8.56-16.51,9.82-25.75,1.76-12.79-12.67-22.86-13-35.77-.21-8,5-15.16,5.57-23.1,1.08-15.8-16.28-30.73-9.91-45.23,2.73-6.22,9.1-9.89,15.1-13.07Q541.57,7.09,571.82-6.6"/><path class="cls-6" d="M606.1,249.42c6.93-24.31-12-47.67-18.46-72.12-3.62-13.68-3.26-28.06-2.88-42.2l1.5-55.63c.09-3.47.27-7.21,2.39-10s6-4,9.57-4.68c29.7-5.86,60.24,4.2,87.5,17.36s53.2,29.66,82.3,38c27.35,7.85,58,8.8,80.54,26.15l-4.15,4a374.06,374.06,0,0,1,80.7,36.2c12.54,7.53,24.71,15.82,38.17,21.55,9.06,3.86,19.93,6.37,28.4,1.35,7.58-4.5,10.94-13.88,11.32-22.69s-1.65-17.53-2.11-26.34a74.61,74.61,0,0,1,4.71-30.17c3.51-9.3,9-18.82,6.84-28.53-1.25-5.62-4.94-10.34-8.52-14.86L965.16,38.07c-7.73-9.74-15.59-19.6-25.59-27S917-1.1,904.72.76"/><path class="cls-6" d="M759.37,508.85q-55.83-57.12-114.15-111.73c-5.23-4.89-10.54-9.87-14.16-16.05-3.24-5.55-5-11.85-7.55-17.74-6.6-15.11-18.73-27.46-24.27-43-3.18-8.92-4-18.48-5.53-27.83-5.49-34.33-19.81-66.59-28-100.37-4.3-17.67-6.91-35.71-9.51-53.71L549,88.63c-.8-5.52-1.59-11.18-.4-16.63a27.89,27.89,0,0,1,6.9-12.73c10.19-11.06,26.17-14.17,41-16.56s30-4.66,44.93-3c37,4,67.11,30.63,101.55,44.72C797.51,106.7,863.69,97.83,912,131.53c6.66,4.65,15.11,10.26,22.13,6.17,4.06-16.31,0-33.73-7.36-48.86s-17.71-28.53-27.15-42.43c-2.93-4.32-5.86-8.94-6.28-14.14-.31-3.85.77-7.92-.71-11.48-1.35-3.24-4.5-5.3-7.48-7.15l-40.6-25.27"/><path class="cls-6" d="M748.09,534.48c-5.06-10.81-13-20-20.75-29l-71.65-83.1c-6.33-7.34-14-15.32-23.7-15-3,.09-6.06,1-8.83-.11-5.65-2.2-5.57-10-5.69-16.07-.33-16.59-9.54-31.75-20.36-44.34s-23.55-23.56-33.2-37.06c-4.53-6.34-8.06-15.85-2.41-21.21,2-1.9,4.76-2.77,7-4.4,7.6-5.6,6.22-17.17,3.82-26.3a578.83,578.83,0,0,0-22.18-67.33c-2.54-6.36-5.22-12.79-5.9-19.6-1.33-13.21,4.87-27.15-.07-39.47-3.77-9.38-13.43-15.86-15.67-25.72-1.09-4.8-.26-9.81.58-14.66l7.62-44c.52-3,1.07-6.1,2.68-8.69,1.84-3,4.87-5,7.86-6.77,46.34-28,107.15-30.27,155.46-5.85,9.4,4.75,18.41,10.46,28.47,13.58,30.6,9.51,68.07-5.49,93.62,13.84,5.34,4,9.73,9.37,15.63,12.52s14.34,3.24,18.22-2.2c3.71-5.19,1.51-12.39-1.17-18.18A154.15,154.15,0,0,0,820.14-5"/><path class="cls-6" d="M993.83-3.92c.28,7.08,3.82,13.57,7.42,19.67a433,433,0,0,0,36.29,52.33c11.12,13.77,23.53,27.75,26.88,45.13,3.1,16.09-2.1,32.67-.84,49,1.22,15.62,8.25,30.13,12.14,45.31s4,33-6.65,44.56c-7,7.56-17.27,10.95-27.12,13.92-3.85,1.16-8,2.3-11.84,1.28-5.33-1.4-8.77-6.4-13.08-9.83-8.91-7.09-21.23-7.32-32.34-9.81-15.22-3.41-28.93-11.46-42.36-19.38l-70.68-41.74c-29.64-17.51-59.75-35.21-93-44.13-23.77-6.38-48.93-8.2-71.43-18.18C688.74,116,672.61,102.53,653.16,97s-45,1-50.53,20.5c-2.36,8.39-.48,17.32,1.4,25.83l26.15,117.89c2.29,10.33,4.69,20.91,10.42,29.82,11.66,18.12,34.37,25.42,55.61,29,10.68,1.81,22.7,3.73,29,12.51,3.42,4.74,4.52,10.71,6.64,16.15,8.62,22.08,32.89,33.62,46.83,52.8,13.4,18.45,16.65,43.2,31.75,60.29,12.23,13.85,31.56,21.84,38.9,38.8,5.51,12.74,2.65,27.79-3.71,40.13s-15.86,22.73-24.42,33.67c-3.69,4.71-7.4,10.16-6.85,16.12.63,6.87,6.74,12.17,7.83,19,1.22,7.55-3.37,17.1,2.57,21.91,2,1.58,4.57,2,7.05,2.44,50.42,8.2,101.74,16.41,152.36,9.48,20.4-2.79,40.51-8,61.08-9.06a172.88,172.88,0,0,1,48.65,4.89c7.63,1.83,15.44,5.62,23.12,6.45,10.37,1.14,17.13.14,27.45,5,27,12.62,58.36,21.93,86.11,11.16,13.21-5.13,25.34-14.69,39.51-14.65,9,0,20.11-3.79,24.51-11.62s4.61-17.25,4.71-26.23c.05-4.34,0-9-2.38-12.59-2-3.08-5.44-4.91-8.7-6.61l-46.18-24.16c-4-2.07-10.53-3-11.37,1.36-.45,2.32,1.38,4.87.27,7-1.35,2.53-5.36,1.48-7.27-.66s-3.15-5.08-5.78-6.2c-6.82-2.91-14.17,9.15-20.43,5.17-3.34-2.13-2.94-7-2.19-10.91,1.36-7,2.56-14.4.67-21.33s-7.7-13.3-14.87-13.5c-2.58-.07-5.34.61-7.64-.57-2-1-3.12-3.24-4.72-4.84-6.45-6.46-17.82-1.47-26.34-4.74-13-5-12-24.56-21.76-34.5-4.85-4.92-11.85-6.92-18.52-8.73a6,6,0,0,0-2.17-.3,4.32,4.32,0,0,0-2.73,1.73c-3.18,4-1.85,9.86.5,14.36s5.62,8.78,6,13.84c.2,2.3-.21,4.73.69,6.87s2.84,3.49,4.75,4.7c9.75,6.16,20.69,10.18,30.76,15.8s19.64,13.36,23.88,24.09c2.61,6.6,3.36,14.49,8.78,19.07,2.88,2.43,6.64,3.48,10,5.2a27.88,27.88,0,0,1,14.61,27.06c-.42,3.93-1.69,7.78-1.6,11.73a17.52,17.52,0,0,0,13.51,16.21c18,3.76,31.31-21.16,49.64-20.12,7.17.4,13.4,4.8,19.2,9-6.43,9.5-18.19,13.87-29.49,15.87s-23,2.24-33.81,6.11c-7.34,2.64-14.14,6.92-21.81,8.35-16.58,3.11-32.18-7.47-47.33-14.9-25.48-12.49-54.19-16.74-82.5-18.64-10.79-.72-21.7-1.11-32.36.75-10.46,1.82-20.41,5.77-30.7,8.43-17,4.39-34.75,5.18-52.32,6-14.9.65-31.57.68-42.44-9.54a99.78,99.78,0,0,1,48.32-6.85c4,.43,8.08,1.07,11.78-.39s6.52-6,4.64-9.46c-1.63-3-5.62-3.67-9.06-4l-29.62-2.48c-1.45-3.65-7-6.17-10.43-4.21-4.82,2.77-10.93,4-16.49,4.36-3.67.26-7.37-.44-11-.06-3.21.33-6.27,1.49-9.38,2.3-6.73,1.77-14,1.94-20.53-.51s-12.1-7.74-14-14.43.44-14.62,6.2-18.52c2.84-1.92,10.46-8.67,12.59-11.37,8.7-11.06,15.29-12.76,25.59-22.37,3.83-3.57,7.78-7.22,12.67-9.08,7.91-3,17.75-1.17,24.18-6.66,4.49-3.84,5.87-10.2,6-16.11.48-24.26-15.43-45.69-20.34-69.45-1.91-9.24-3.21-20.42-11.66-24.61-8-3.95-18.7.69-25.91-4.52-6.53-4.71-6.09-14.81-2.59-22.06s9.27-13.38,11.78-21-.06-18.1-7.89-20c-3.82-.9-7.75.49-11.52,1.59-8.11,2.36-16.92,3.4-25,.77s-15-9.59-15.76-18c-.44-5,1.28-10,.73-15-1-9.19-9.17-15.68-16.65-21.09-5.06-3.65-11.31-7.49-17.11-5.2-2.87,1.13-5,3.57-7.36,5.51-12.46,10.07-34.41,2.88-38.5-12.61-3.39-12.86,3.78-28-3.59-39.11-3.46-5.21-9.55-8.27-12.85-13.58s-.73-14.8,5.46-13.91c-2.66-9.56-11.95-15.52-20.66-20.28s-19.28-9.39-28.42-5.31c-10,4.48-15.79,18.44-26.75,17.74a275.25,275.25,0,0,1-11.49-38.85c-1.89-8.65-3.25-18.11.77-26s15.63-12.25,22-6.12c3.5,3.37,4.32,8.58,6.32,13,7.58,16.79,29.54,19.74,46,28.05,31.27,15.8,43.84,53.14,53.5,86.83,1.46,1.52,4.17.08,5.07-1.83s.93-4.2,2.07-6c3-4.68,10.19-2.38,15,.4l48,27.78c7,4.07,15.05,9.84,14.53,18-.58,9.2-11.76,19.33-4.83,25.42,5.73,5,13.65-2.55,20.82-5.17,12.45-4.54,24.43,7.14,32.57,17.6,3.07,3.94,6.26,8.17,6.77,13.14,1.42,14-18.48,25.88-12.46,38.56,2.91,6.13,10.8,8.23,17.55,7.45s13.08-3.69,19.81-4.63c15.42-2.17,31.72,7.44,37.29,22,1.06,2.77,1.76,5.82,1,8.7-2.53,10-18.37,9.66-23.45,18.6-4.38,7.71,1.69,17.06,7.87,23.41s13.39,14.1,11.32,22.72a22.36,22.36,0,0,1-4.36,8c-19.55,25.57-49.53,40.43-76.23,58.4a341.12,341.12,0,0,0-35.73,27.64l-.68,5.7c17.71,11,40.39,3.29,60.78-1a169.18,169.18,0,0,1,78.36,2.3c2.63-12.68,16.73-20.49,29.66-19.76s24.57,8,34.49,16.35,18.86,17.93,29.84,24.78a459.75,459.75,0,0,0-81.77-9.58c-8.85-.23-17.85-.23-26.35-2.71-5.44-1.59-10.59-4.17-16.16-5.25-16.71-3.25-33.23,7.49-50.24,6.82"/><path class="cls-6" d="M1078.62-2.87c-6.16,9.22,2.43,23.93,13.49,23.1,4.14-.31,7.94-2.32,12-3.26s9-.47,11.31,3c3.51,5.2-1.4,12.92,1.81,18.31,1.66,2.79,5,4.08,7.07,6.63,2.35,3,2.56,7.31,5.21,10,4.25,4.36,12.19,2.2,17,6,2.58,2.06,3.66,5.48,5.85,8,8.76,9.93,28.69.12,36.84,10.55,3,3.81,3.1,9,3.1,13.86v50c0,13,1.6,28.76,13.31,34.44,2.79,1.36,6,2,8.51,3.74,3.07,2.11,4.85,5.58,6.52,8.91,8.57,17.16,17.19,34.48,22,53S1248,282.18,1241,300c-1.79,4.53-4.11,9.07-4,13.93.19,6.86,5.27,13,5,19.83-.35,9.51-10.8,17.84-7.63,26.82,1.71,4.84,6.78,7.49,10.24,11.28s4.41,11.25-.42,13c-3.12,1.12-6.38-1.07-9.66-1.52-2.23,4.37,5.86,8.66,4.27,13.29-.75,2.17-3.26,3.08-5.46,3.71l-50.17,14.32c-2.12.6-4.46,1.19-6.45.26-3.39-1.6-4.68-7.07-8.41-6.87-2.12.12-3.55,2.14-5.39,3.2-4.07,2.35-9.1-.35-13-3q-33.57-22.65-67-45.45l-69.23-47c-5.2-3.53-10.43-7.09-14.87-11.54-2.37-2.36-4.52-5-7.24-6.94-5-3.61-11.43-4.53-17.57-5.34-33.56-4.45-56.92-36.12-82.89-57.84-4.43-3.7-8.92-7.54-14.3-9.63s-11.95-2.13-16.5,1.42c-2,1.54-3.53,3.71-5.86,4.63-1.9-1.17-.24-4,.42-6.09,1.11-3.52-1.48-7.32-4.8-9s-7.14-1.66-10.83-1.83A115.61,115.61,0,0,1,819.46,211c-3.2-.72-6.46-1.62-9.08-3.6-2.3-1.73-3.94-4.17-5.85-6.32-7.51-8.43-18.84-12.05-29.12-16.7A27.69,27.69,0,0,1,768,180a23.5,23.5,0,0,0-3.63-3.15,13.07,13.07,0,0,0-4.08-1.3l-14.08-2.87c-1.78,1.63-1.07,4.75.68,6.4s4.17,2.35,6.36,3.35c9.82,4.5,14.87,15.18,20.41,24.45a125.46,125.46,0,0,0,15.5,20.74,48,48,0,0,1-6.09-13.95c3.69,0,7.74.12,10.53,2.54s2.72,8-.84,9a234.94,234.94,0,0,0,39.31,31.24,4.49,4.49,0,0,0,2.67,1c1.21-.1,2.11-1.13,3.19-1.69,3.42-1.8,7.31,1.25,9.87,4.14a159.19,159.19,0,0,1,18.7,26c2.44,4.23,4.72,8.64,8.11,12.15,7.78,8,19.76,9.94,29.74,15,20.89,10.62,31.94,37.43,24.59,59.69-.72,2.18-1.61,4.47-1.07,6.69,1.2,5,8.27,5.72,12.86,3.48s8.28-6.31,13.21-7.6c9.55-2.51,18.09,6.09,24.24,13.81l13.16,16.53c4.58,5.76,9.44,12.83,7.27,19.86-1.82,5.91-8.41,10.79-6.74,16.74,5.09-3.51,10.42,9,15.93,6.16a14.07,14.07,0,0,0,2.77-2.53,7.18,7.18,0,0,1,10.22,10.07c5.69,8,.42,18.82-7.15,25.09s-17.23,9.81-24.24,16.71c-8.38,8.26-12.67,21-23.33,26-5.35,2.51-11.57,2.61-17,5s-9.83,9.11-6.7,14.12c-6.11-2.15-12.16,2.83-17,7.08-8.93,7.8-18.85,14.36-28.74,20.89-4.94,3.87.08,12.59,6.32,13.29s12-3.08,17.66-5.71a51.49,51.49,0,0,1,15.21-4.36c20.73-2.61,43.45,7.11,61.82-2.83,3.73-2,7-4.77,10.6-7.06,11.08-7.08,24.38-9.59,37.31-12,4-.73,8.78-1.21,11.47,1.84,1.77,2,2,4.87,2.79,7.41,2.23,7,9,11.47,15.32,15.32l37.88,23.1c15.3,9.33,31.82,19,49.71,18.1a6.18,6.18,0,0,0,3.1-.74c3.49-2.24.15-7.77-3.65-9.41-8.16-3.53-18.17-2-25.57-6.9-10.55-7-10.09-22.45-16.05-33.6-6.53-12.21-22.17-18.7-35.43-14.7-2.46.74-5.09,1.8-7.49.88-2.89-1.1-4-4.46-5.8-7-4.15-5.94-12.45-7.55-19.59-6.32s-13.66,4.72-20.51,7.07c-8.17,2.79-16.79,4-25.34,5.1L965.1,558c-1.74.23-3.65.42-5.1-.56-3.46-2.35-.67-7.71,2.26-10.71l36-36.88c10.25-10.49,20.6-21.06,32.74-29.29,8.71-5.91,19.78-13.93,16.84-24-2.32-8-11.84-10.69-19-14.91A35.9,35.9,0,0,1,1012,416.82c-.71-4.35-.61-8.87-2-13-1.77-5.25-5.73-9.42-9.58-13.41-6.91-7.16-13.93-14.42-22.51-19.47s-19-7.71-28.61-4.94c-2.71.78-7.13.62-6.64-2.15.2-1.11,1.27-1.8,2-2.64,4-4.5-1.52-11.63-.16-17.52.79-3.46,3.82-5.85,6.06-8.59s3.68-7.06,1.24-9.63c-2.27,3.18-7,3.78-10.65,2.43s-6.56-4.19-9.33-7l-60.78-60.76-19.54-19.53c2.71-2.36,6.08-1.61,9.14.27l15.3,9.36c57,34.88,118.49,61.84,172.89,100.65,30.16,21.51,54.66,49.83,80.16,76.7,14.36,15.14,32.27,31.08,53,28.66,3.72-.43,7.53-1.46,11.12-.43a18.67,18.67,0,0,1,6.75,4.19,110.76,110.76,0,0,1,20.67,23.85,53.89,53.89,0,0,1,36.51,13.06c6.15,5.35,11.36,12.29,19,15.09,4,1.47,9,1.38,13.27,1.06a8.06,8.06,0,0,0,2.88-.6c1.69-.78,2.77-2.53,4.44-3.34s3.61-.54,5.42-.64c.54,0,2.28,0,2.44-.62.06-.23-1.08-1.64-1.21-2-1-3.09.92-6.8,3.26-8.77,3.23-2.72,7.53-4.19,10.11-7.54,1.89-2.45,2.59-5.59,3.24-8.62,3.33-15.55,6.62-32.06,1.28-47,7.33.28,13.57-8,11.25-15s-12.31-9.85-18-5.22c-2.51-.35-2.84-4.23-1.11-6.08s4.42-2.36,6.77-3.32c9.91-4.06,13.55-15.95,16-26.37l8.28-35.22c2.46-10.48,4.93-21.44,2.35-31.89-3.42-13.9-15-24.06-25.89-33.29-3.61-3-8.36-6.27-12.65-4.32-1.58.73-2.83,2.09-4.45,2.71-6.31,2.41-10.31-6.73-11-13.44a309.93,309.93,0,0,0-21.85-84.91c-6-14.51-13.16-28.54-20.27-42.55-3.7-7.27-7.53-14.72-13.61-20.16-3.57-3.19-8.24-6.39-8.22-11.18,0-2.23,1.11-4.3,1.46-6.51,1-6.5-4.82-12.48-11.23-14s-13.08.27-19.43,2c-7.09-2-7.79-11.86-5.81-19s5-15.33.57-21.27c-1.67-2.25-4.15-3.72-6.47-5.29A62.37,62.37,0,0,1,1161-8.27"/><path class="cls-6" d="M1097.26,609.66l54.08,14.23c5.86,1.55,12,3.1,17.92,1.64s11.23-7,10.19-13c-1.42-8.19-11.89-10.23-19.32-14-14.63-7.38-19.87-25.09-27-39.83s-22.72-29.55-37.88-23.33c-4.91,2-9.62,6.19-14.77,4.91-4.53-1.12-7-6-11.09-8.31-5.12-2.91-11.53-1.21-17.15.56l-27,8.51c-12,3.78-27.25,6.7-35.33-2.94-.1-14.1,26.16-12.11,30.94-25.39,1.18-3.29.71-7,1.48-10.38,2.3-10.24,14-14.68,23.67-18.73s20.38-12.61,17.53-22.71c-1.12-4-4.19-7-7.14-9.93L1026,421.28c.55-22.92-20.88-39.16-37.06-55.4a157.93,157.93,0,0,1-34.19-51.57c10.1-3.82,21.69-.53,30.73,5.38s16.22,14.17,24.1,21.55c31.12,29.14,74.67,46,96.65,82.49,9.09,15.12,15,34,30.76,42,9.94,5,22.16,4.58,31.52,10.61,3.33,2.15,6.23,5.08,10,6.39,3.41,1.19,7.16.9,10.71,1.57,9.88,1.87,16.7,10.58,23.43,18,21.94,24.4,51.3,40.61,80.08,56.37,21.9,12,46,24.39,70.6,20.09,6.47-1.13,12.87-3.5,17.77-7.85,7.16-6.35,10.28-16,13.09-25.12,5.15-16.76,10.37-34.08,8.55-51.52-1-9.66-4.16-19-5-28.67-1-10.83,2.51-23.83,12.78-27.4,3.42-1.19,7.51-1.32,9.93-4,2.89-3.21,1.82-8.17,1.31-12.46a37.87,37.87,0,0,1,8.95-29,24.26,24.26,0,0,0-18.4-9.56c14.29-12.29,16.19-36.42,4-50.8.11-19.54-.94-41.73-15.8-54.4-8.94-7.63-14.62-8-11.77-20.73.69-3.09.9-6.59-1-9.14s-5.29-3.4-8.32-4.43a39.62,39.62,0,0,1-15.81-10,1.64,1.64,0,0,0-1.28,1.9,24.06,24.06,0,0,0-9-17.79c-2.22-1.8-4.77-3.21-6.76-5.25-3.91-4-5.2-9.84-8.31-14.48s-7.6-7.67-11.7-11.23c-16.18-14.08-25-34.81-30.86-55.43-1.9-6.66-3.59-13.46-7-19.49s-8.8-11.32-15.57-12.77c-3.89-.83-8.29-.47-11.41-2.93-2.51-2-3.5-5.27-4.35-8.35q-3.11-11.28-6.23-22.55c-4.24-15.35-9-31.53-20.62-42.37-6.36-5.91-14.33-9.77-21.17-15.11s-12.83-13-12.51-21.72a4.85,4.85,0,0,1,.58-2.41,5.19,5.19,0,0,1,3.52-1.88,35.41,35.41,0,0,1,33.51,11.66c2,2.4,3.75,5.11,6.26,7,1.74,1.29,3.77,2.12,5.62,3.23,7.91,4.74,11.79,13.87,16.72,21.66a74.91,74.91,0,0,0,48.41,33c3.42.66,7,1.07,10.34.12,4.21-1.2,9-4.37,12.4-1.58,3.64,3,.77,9.16,2.65,13.48,2.75,6.31,12.05,4.32,18.69,6.12,5.73,1.56,9.87,6.44,13.41,11.21,4.15,5.58,8.22,12.31,6.54,19-1.32,5.28-6,9.4-6.66,14.81-1,8.45,8.1,14.69,16.46,16.3s17.51.95,24.78,5.4c5.87,3.59,9.44,9.92,12.33,16.16s5.44,12.83,10.13,17.86,12.22,8.18,18.56,5.51"/><path class="cls-6" d="M1430.45,116.2a9.92,9.92,0,0,1,3,5.63,11.62,11.62,0,0,1-10.58-2.18l-21.44-18c-6.33-5.3-12.7-10.63-18-16.94-3.37-4-6.3-8.35-9.67-12.34a143,143,0,0,0-11.63-11.86c-9.27-8.75-18.79-17.66-30.45-22.81-5.3-2.35-10.93-3.85-16.39-5.83C1298.89,26,1284.38,16,1270.07,6.13c-2.85-2-5.74-4-7.84-6.72-5.35-7-3.79-18.2,3.26-23.44"/><path class="cls-3" d="M172.45,1132.65c-3.31-.85-1.92-6.33,1.2-7.73s6.92-.91,9.88-2.64c3.81-2.22,4.84-7.18,5.48-11.55q2-13.55,4-27.11c1.28-8.69,2.56-17.52,1.4-26.22-1.43-10.75-6.49-20.64-11.52-30.25q-22.59-43.1-46.75-85.34c-3.88-6.79-8.28-14-15.49-17-2.92-1.22-6.18-1.69-8.77-3.51-7.93-5.55-4-17.78-5.43-27.35-1.47-10-9.5-17.87-18.11-23.22s-18.25-9.08-26.23-15.34c-12.52-9.82-19.63-24.78-28.55-38S11.77,791.6-4.14,791.17"/><path class="cls-3" d="M2.12,707.12l82.25,97.74a37.79,37.79,0,0,0,7.26,7.2c2.81,1.93,6.09,3.07,9,4.92,4.59,3,7.85,7.53,11,12l36.75,52.19c6.44,9.15,13,18.46,21.91,25.28,4.45,3.42,9.44,6.2,13.34,10.24,4.49,4.66,7.23,10.7,10,16.58a632.24,632.24,0,0,0,71.06,117.13c12.47,16.27,26.47,34.09,25.18,54.55-.55,8.78-4.4,17.73-11.72,22.61-4,2.68-8.84,4-12.8,6.78s-7,8-5,12.37"/><path class="cls-3" d="M354.49,613.51c5,5.63,5.78,13.71,6,21.21a206.12,206.12,0,0,1-2.73,38.83c-2.88,17.3-7.64,36.46,1.73,51.28,11.64,18.41,38.65,19.85,54.14,35.17,15.25,15.09,15.53,39.14,15.88,60.59s3.48,46.09,21.39,57.91c9.88,6.52,22.8,7.86,31.72,15.66,9.09,8,11.94,20.74,18.34,31a50.47,50.47,0,0,0,38.23,23.16c7.68.6,16.15-1,21.19-6.8,7.28-8.42,4.11-22-3-30.56s-17.12-14.16-25.28-21.72c-23.5-21.77-28.43-56.7-29.8-88.7s-1.13-66-18.08-93.2c-18.83-30.19-54.31-44.82-81.8-67.39-13.86-11.39-26-24.64-40.53-35.25C344.38,591.88,341.21,598.43,354.49,613.51Z"/><path class="cls-3" d="M4.41,628.34c-.29-14.48,10.69-26.28,18.38-38.55C34.59,571,39.36,548.25,38.65,526c-.24-7.37-2.76-16.62-10.07-17.58-2.53-.33-5.06.5-7.61.68-11.27.78-19.74-12.79-16.64-23.66S18.62,467.64,29.8,466s22.49,1.13,33.46,3.83c1.41-14.81,13-28.24,10.45-42.89-.75-4.27-2.71-8.29-3.12-12.6-.46-4.87,1.06-9.67,1.69-14.51A40.72,40.72,0,0,0,55.58,362c-4.46-3.11-9.95-5.77-11.7-10.93-1.85-5.47,1.37-11.29,1.49-17.06.26-11.8-11.58-19.53-19.74-28.06a55.35,55.35,0,0,1-12-55.32,14.67,14.67,0,0,0-15,1.09"/><path class="cls-3" d="M603.94,1142.35A60.77,60.77,0,0,0,568,1096c-5.46-2.29-11.29-3.78-16.35-6.85A30.3,30.3,0,0,1,538.77,1073c-1-3.11-1.57-6.42-3.22-9.25s-.39-5.53-3.63-6a24.46,24.46,0,0,1-19.48-17.89c-1.7-6.93-.22-14.23-.8-21.35-2-24.65-26.31-40.08-45.77-55.34-31.49-24.7-55.31-57.65-78.69-90.14-6.11-8.5-12.41-17.44-13.92-27.8-1.31-9,1.13-18.08.38-27.1-1.6-19.21-17.13-34.31-33.45-44.56S305.52,755.66,291.9,742s-21.11-36.3-10.36-52.29c5.71-8.49,15.42-13.52,21.6-21.67,11.37-15,8-37-1.76-53.07s-24.57-28.32-37.05-42.39c-4.81-5.42-9.44-11.51-10.48-18.68-.82-5.65.7-11.33,1.86-16.92a143.74,143.74,0,0,0-10.19-89.09c-3.72-8-6.69-20.24,1.58-23.38,3-1.12,6.25-.33,9.3.47l84,22C317.86,409.73,292,369.66,250.67,356c-27.71-9.15-60.79-5.75-83-24.73-4.35-3.72-8.88-8.51-14.6-8.14-4.79.32-9.17,4.36-13.84,3.21-3.46-.84-5.59-4.22-7.35-7.32l-11.81-20.7c-2.32-4.07-4.34-9.93-.64-12.8,2.27-1.77,5.5-1.23,8.36-1.55,8.73-1,14.22-12.52,9.49-19.92,8.72,4.58,21.08-1.51,22.77-11.21l-23.31-7.94a39.25,39.25,0,0,1,3.46,14.44c-4.54,2.56-6.44-5.84-9.46-10.08-4.11-5.76-14.1-3.05-17.52,3.15s-2.34,13.81-1.15,20.79c-8.84-.91-11-12.59-11.54-21.46s-5.73-20.47-14.34-18.25c-6.54,1.7-8.13,10.11-8.45,16.86-32.6,2.4-42.17-49.68-74.82-51.21l2.37,4.72"/><path class="cls-3" d="M2.21,58.16C-2.7,53,2.8,43.73,9.81,42.59s13.73,2.81,19.73,6.6L54.4,64.88c6.87,4.34,14.73,11,12.63,18.84C66.44,86,65,88,64.85,90.26,64.41,95.56,70.1,99,75,101.18l52.18,23.08c6.58,2.91,13.51,5.88,20.68,5.26,6.58-.57,12.69-4.15,19.29-4.25,9.71-.16,18.59,7.2,28.24,6.13,4.08-.45,9.34-1.9,11.42,1.64.76,1.29.74,2.87,1,4.35,1.28,7.14,9.1,11.3,16.33,12s14.51-1.07,21.75-.54c10.85.81,20.79,6.62,31.58,8s24.32-4.69,24.19-15.57c-.1-8-7.95-14.14-15.86-15.5s-15.93.75-23.84,2.12a5.93,5.93,0,0,1-3.52-.13c-2.16-1-2.33-4-2-6.34,3.89-25.94,30.72-41.65,42.73-65,10-19.36,9-42.65,17.29-62.8"/><path class="cls-3" d="M1397.67,1039.62c.56-3.67,1.12-7.43.38-11.07-.51-2.5-1.63-4.85-2.17-7.35-1.41-6.42.42-14.64-5-18.41-2.11-1.49-4.87-1.78-7-3.2-4.68-3.06-4.78-9.89-3.4-15.31s3.73-11,2.13-16.41c-1.91-6.37-8.6-9.84-14.66-12.6-18-8.23-36.59-16.6-56.37-17.88-10.83-.7-22.91,1.39-29.66,9.87-5.08,6.39-6.07,15.29-4.52,23.3s5.37,15.39,9.14,22.63l27.76,53.35c4.1,7.88,8.28,15.87,14.38,22.31,12.26,13,32.88,12,49.49,12.59C1398.88,1082.14,1395.12,1056.36,1397.67,1039.62Z"/><path class="cls-3" d="M1429.19,797.56c3-2.54.59-7.79-2.94-9.6s-7.82-1.9-11.16-4.05-5.33-6.29-8.1-9.39c-14.75-16.53-46.89-.28-62.29-16.22-1.66-1.71-3.11-3.81-5.35-4.64-4.84-1.81-9.26,3.1-13.69,5.77-12.36,7.43-28-2.81-42.34-1.62-15.13,1.25-26.4,15.31-30.69,29.88-1.64,5.58-2.56,11.43-5.18,16.63-3,6-8.14,10.73-12.87,15.57-45.35,46.48-61.77,115.17-58.6,180,.7,14.3,4.52,31.54,18.16,35.9,3,1,6.36,1.16,9.27,2.5,10.4,4.8,9.48,19.41,10.74,30.79,3.13,28.45,28.45,48.5,51.7,65.19"/><path class="cls-3" d="M1427,712c.69-3.52-1.36-7.12-4.2-9.31s-6.35-3.27-9.77-4.36c-14.32-4.56-28.9-10.32-39.18-21.29-5.16-5.5-9.15-12.46-9.61-20s3.15-15.56,9.91-18.92c7.3-3.64,16-1.28,24.13-1.08a45.14,45.14,0,0,0,39.3-22"/><path class="cls-3" d="M1129.79,1133.86a84.83,84.83,0,0,0-21.13-74.91c-11.82-12.42-29-25.42-25.08-42.1.86-3.6,2.72-7,2.77-10.7.06-4.49-2.56-8.51-4.77-12.41-9.37-16.56-12.52-37.94-3.12-54.48,5.89-10.36,15.89-17.66,23.69-26.67,11.19-12.93,17.68-29.17,23.7-45.17,5.22-13.85,10.33-28,18.84-40.07,3.61-5.13,7.79-9.83,11.52-14.88,5.87-8,10.59-16.69,15.29-25.4,14.89-27.6,30.12-56.35,31.89-87.67.37-6.52.32-13.61,4.33-18.76,3.06-4,8-6,12.77-7.42,18.68-5.57,38.77-4.6,57.58-9.68s37.75-19.46,38-38.95c.14-13.19-8.31-24.85-17.37-34.43a188.88,188.88,0,0,0-75.89-48.78c-4.44-1.52-9.1-3-12.51-6.18s-5.13-7.86-7.35-12-5.5-8.33-10.15-9.17-10.06,3.74-8.31,8.13"/><path class="cls-3" d="M1423.11,200.38a64.63,64.63,0,0,0-35-31.66c-9.39-3.5-20.1-5.09-27.1-12.27-5.55-5.69-8.49-14.63-16-17.11-2.2-.72-4.62-.8-6.68-1.85-6.84-3.49-4.94-13.68-7.77-20.81-4.46-11.23-21.78-16.44-20.5-28.46l-8.71.23a147.48,147.48,0,0,0,47.21,90c10.21,9.17,22.71,18.74,23.35,32.45,14.11-.61,24.43,12.83,31.12,25.27s14,26.75,27.7,30.36"/><path class="cls-3" d="M1182.75,517.13c1.84-.63.81,3.4-1,2.64s-1.92-3.17-2-5.11c-.68-13.09-12.37-22.91-24.23-28.5s-25.1-8.85-35.18-17.23c-7.72-6.43-12.9-15.31-18.56-23.6a200,200,0,0,0-58-56l.85,36.13c14.06,6.17,27.25,16.37,32.61,30.75s.41,33.15-13.48,39.7c-4.91,2.32-10.5,3-15.3,5.58s-8.79,8.16-6.84,13.24c2.41,6.27,11,6.55,17.73,6.07,32.63-2.32,70,6.56,86,35.09,5.15,9.18,7.67,19.75,13.56,28.49s17.1,15.45,26.81,11.37c-8.13,12.91-4.8,31.77,7.27,41.11,2.08,1.61,4.69,3.87,3.71,6.32a4.91,4.91,0,0,1-1.75,2c-7.52,5.57-18.18,4.76-26.79,1.09s-15.93-9.74-24-14.52c-21.6-12.83-47.45-15.82-72.43-18.53L940.08,598.93c-5.38-.58-10.88-1.16-16.15.05-9.45,2.16-16.66,9.61-23.11,16.85s-13.22,14.94-22.45,17.91S856.88,632.53,855,623c-1.26-6.15,1.62-13.82-3-18-2.87-2.6-7.31-2.37-10.78-4.1-7.34-3.67-7.54-14.49-3.72-21.76s10.34-12.89,13.83-20.32c4.79-10.21,7.61-26.24,18.81-24.86,3.9.49,7.38,3.44,11.29,3,5.67-.6,8.08-7.38,9.24-13l5.92-28.52c.58-2.82,1.16-5.76.46-8.55-.75-3-2.88-5.43-4.94-7.73l-50.64-56.68c-12.17-13.62-24.42-27.35-33.73-43.07S792,346,779.86,332.24s-32.75-22.63-48.92-14c3.66-30-8.57-61.5-31.53-81.17-11.24,13.07-.28,32.43,4.32,49.05,1.69,6.09,1.81,13.9-3.5,17.31-8.41,5.41-17.47-5.9-21.14-15.2l-53-134.62c-2.12-5.39-4.28-11-4.1-16.76.45-14.21,15.51-24.54,29.72-24.48s27.21,7.76,38.59,16.27,22.21,18.23,35.43,23.44c23,9.08,52.86,4.68,69,23.42,3.82,4.44,6.63,10,11.71,12.94,3.38,2,7.36,2.46,11.21,3.12,65.36,11.24,112.44,72,176.66,88.58,6.26,1.61,13,3,17.62,7.5,2.69,2.63,4.4,6.12,7.08,8.75,7.09,6.95,18.9,6.28,27,12.06,3.47,2.5,6,6,9,9.16,8,8.55,18.65,14,29.07,19.32,11.31,5.75,23.72,11.66,36.15,9.16s22.5-18,15-28.21l19.44-6.41c-2.65-11.21-5.27-23.18-1.34-34s17.27-19,27.25-13.26a32,32,0,0,0-2-30.68c-3.63-5.6-8.93-9.87-14.13-14l-31-24.87c-10.17-8.16-21.46-19.19-18.76-32,1.93-9.16,10.63-15.43,13.78-24.24,5.54-15.53-7.45-30.81-17.85-43.61C1079.09,56.12,1059.57,2.1,1012.74-15"/><path class="cls-4" d="M1447.07,930.46a671.37,671.37,0,0,0-68.19-68.52c-3.72-3.24-7.78-6.57-12.68-7.12-8.62-1-15.58,6.87-19.73,14.49s-7.78,16.45-15.57,20.28c-3.38,1.66-7.33,2.22-10.3,4.53-3.91,3-5.27,8.43-8.86,11.84-8.72,8.3-24.6.91-34.42,7.88-2.42,1.71-4.33,4.24-7.13,5.24-2,.72-4.25.55-6.27,1.25-2.68.92-4.63,3.24-6.16,5.63-6.64,10.34-8,23.4-6.13,35.56s6.51,23.67,11.16,35.05l19.08,46.66c2.35,5.76,5,11.89,10.33,15.12,3.81,2.32,8.53,2.82,12.26,5.25,5.56,3.63,7.69,10.58,11,16.37s9.91,11.22,16,8.56c4.62,3.79-2.8,12.38,1.06,16.94a7,7,0,0,0,3.11,1.91c10.75,3.84,25.59-1.35,32.22,7.95,2.06,2.89,2.65,6.55,4,9.83,3.93,9.57,14.23,15.28,24.48,16.64s20.59-.9,30.68-3.13c4.35-1,10-4.34,8-8.31"/><path class="cls-3" d="M1429.63,43.33c-1.31,6.28-5.76,13.58-12.07,12.44-4-.72-6.64-4.75-7.69-8.71s-1-8.16-2.42-12c-2.36-6.62-8.32-11.19-14-15.37-5-3.72-10.2-7.5-16.17-9.39s-13-1.59-17.88,2.35c-1.33,1.07-2.55,2.43-4.2,2.84-2.44.62-4.82-1-6.8-2.55C1331.64-.27,1316-15.42,1296.58-24.35"/><path class="cls-7" d="M-3.86,366.07c-2.63.86-.33-4,2.44-4.09,31.39-1.09,61.84,9.35,92.52,16.09a400,400,0,0,0,234-19.73c33.43-13.52,66.61-33.19,83.91-64.84,6.79-12.41,10.81-26.11,16-39.26A227.82,227.82,0,0,1,456.56,199c16.82-21.73,40.82-41.59,68.26-40.16,24.3,1.26,44.55,18.79,67.93,25.53,18.64,5.37,40,3.24,55.54-8.36s23.78-33.33,17.09-51.54c-4.28-11.64-13.65-20.56-22.71-29L537-3.31"/><path class="cls-7" d="M-19.32,465.82l227.09,59.32c28,7.31,65.46,10.61,78.18-15.33,5.07-10.33,4.41-23.15,11.2-32.44,11.77-16.1,36.19-11.69,56-9.25,47.86,5.89,98.05-11.52,132-45.79,16.34-16.5,33.22-38.47,56.35-36.49,11.72,1,21.85,8.3,31,15.67a486.74,486.74,0,0,1,53.56,50.06c19.26,20.93,36.84,43.7,59.16,61.33S736,542.82,764.1,538.41c36-5.64,62-36.06,92.56-55.82,41.65-26.93,95.44-34.19,142.74-19.26,49.14,15.51,88.81,52.52,136.83,71.2a199.59,199.59,0,0,0,147-1.56c52.32-21.64,103.09-66.75,157.52-51.15"/><path class="cls-7" d="M1441.06,379c-23.57-17.19-53.39-22.54-81.68-29.63-89.85-22.54-172.59-66.55-254.31-110.16-17.58-9.38-35.23-18.8-51.29-30.6-33.2-24.37-58.8-58.24-93.25-80.8-19.92-13-42.22-21.92-64.17-31.16C878.41,89.05,860.26,81,845.7,68c-8.36-7.43-15.37-16.35-24.23-23.19C800,28.24,770.07,25.68,748.63,9c-14-10.89-23.09-26.86-36.25-38.71s-34.07-18.9-48.27-8.32"/><path class="cls-7" d="M-26.56,659.42c91.31,6.05,166.12,72.69,228.39,139.75,12.22,13.17,24.48,26.67,39.79,36.07,36.44,22.37,84.5,17.31,122.88-1.55s69.34-49.62,100.26-79.16C499.2,721.61,535,689.19,577,666.73S668.41,632.4,714.85,643C808.34,664.46,859.69,764.78,941,815.6c19.61,12.24,41.07,21.64,59.28,35.89,35.57,27.82,56.26,72.19,94.22,96.66,44,28.37,100.55,23.85,152.86,21.46s111,.94,147,39c28.32,30,43.37,80.9,84.4,85.07"/><path class="cls-7" d="M1440.69,672.29c-32.28,6.85-65.61-.63-98.25-5.55-45-6.77-91.9-8.49-135,6-15.33,5.15-31.69,14.34-35.19,30.13-1.94,8.82.68,18.15,5.33,25.89,16,26.68,50.86,33.63,77.39,49.93,26.15,16.06,45.41,42.36,73.21,55.35,21,9.84,45,11.07,67.52,16.67s46,17.79,53.85,39.66"/><path class="cls-7" d="M-30.61,852.49c23.54,19.15,55.46,23.41,83.45,35.12,37.09,15.51,67,44,95.91,71.9,15.62,15.06,31.33,30.21,44.05,47.79,8.61,11.89,15.81,24.84,25.38,36,30.69,35.7,82.38,47.68,129,41s89.29-29.26,129.74-53.34c28.6-17,57.3-35.25,89.67-43,16.64-4,36.25-4.31,48.53,7.6,14.39,13.95,11.9,37.75,4.82,56.5a162.22,162.22,0,0,1-28.64,48.32c-8.44,9.83-18.11,18.72-25,29.66s-10.93,24.77-6.55,37"/><path class="cls-7" d="M-49.86,1017c13.72,11.09,34.09,8.23,50,15.81,14.36,6.83,23.32,21.14,34.22,32.71a112.45,112.45,0,0,0,41.48,27.79c12.68,4.85,26.48,7.51,37.58,15.32,17.67,12.43,24.64,34.87,30.49,55.66"/></svg>